# AST/ASF file generated using VICON BodyLanguage
# -----------------------------------------------
:version 1.10
:name VICON
:units
  mass 1.0
  length 0.45
  angle deg
:documentation
   .ast/.asf automatically generated from VICON data using
   VICON BodyBuilder and BodyLanguage model FoxedUp or BRILLIANT.MOD
:root
   order TX TY TZ RX RY RZ
   axis XYZ
   position 0 0 0  
   orientation 0 0 0 
:bonedata
  begin
     id 1 
     name lhipjoint
     direction 0.822369 -0.411937 0.392449 
     length 3.8167 
     axis 0 0 0  XYZ
  end
  begin
     id 2 
     name lfemur
     direction 0.34202 -0.939693 0  
     length 6.16791  
     axis 0 0 20  XYZ
    dof rx ry rz
    limits (-160.0 20.0)
           (-70.0 70.0)
           (-60.0 70.0)
  end
  begin
     id 3 
     name ltibia
     direction 0.34202 -0.939693 0   
     length 7.07101   
     axis 0 0 20   XYZ
    dof rx
    limits (-10.0 170.0)
  end
  begin
     id 4 
     name lfoot
     direction 0.028254 -0.0776273 0.996582   
     length 1.66799   
     axis -90 7.62852e-016 20   XYZ
    dof rx rz
    limits (-45.0 90.0)
           (-70.0 20.0)
  end
  begin
     id 5 
     name ltoes
     direction 1.53483e-011 -4.21688e-011 1   
     length 0.851674   
     axis -90 7.62852e-016 20   XYZ
    dof rx
    limits (-90.0 20.0)
  end
  begin
     id 6 
     name rhipjoint
     direction -0.822466 -0.411836 0.392353   
     length 3.81764  
     axis 0 0 0  XYZ 
  end
  begin
     id 7 
     name rfemur
     direction -0.34202 -0.939693 0   
     length 6.28636   
     axis 0 0 -20   XYZ
    dof rx ry rz
    limits (-160.0 20.0)
           (-70.0 70.0)
           (-70.0 60.0)
  end
  begin
     id 8 
     name rtibia
     direction -0.34202 -0.939693 0   
     length 6.85621   
     axis 0 0 -20   XYZ
    dof rx
    limits (-10.0 170.0)
 end
 begin
     id 9 
     name rfoot
     direction -0.0553036 -0.151945 0.98684   
     length 1.57293  
     axis -90 -7.62852e-016 -20   XYZ
    dof rx rz
    limits (-45.0 90.0)
           (-20.0 70.0)
  end
  begin
     id 10 
     name rtoes
     direction -1.53592e-011 -4.21964e-011 1   
     length 0.802812   
     axis -90 -7.62852e-016 -20   XYZ
    dof rx
    limits (-90.0 20.0)
  end
  begin
     id 11 
     name lowerback
     direction 0.00654913 0.996475 -0.0836396   
     length 1.97212   
     axis 0 0 0   XYZ
    dof rx ry rz
    limits (-20.0 45.0)
           (-30.0 30.0)
           (-30.0 30.0)
  end
  begin
     id 12 
     name upperback
     direction 0.0111875 0.994527 0.103877   
     length 1.89704   
     axis 0 0 0   XYZ
    dof rx ry rz
    limits (-20.0 45.0)
           (-30.0 30.0)
           (-30.0 30.0)
  end
  begin
     id 13 
     name thorax
     direction 0.00473652 0.989004 0.147814   
     length 1.94516   
     axis 0 0 0   XYZ
    dof rx ry rz
    limits (-20.0 45.0)
           (-30.0 30.0)
           (-30.0 30.0)
  end
  begin
     id 14 
     name lowerneck
     direction -0.00925808 0.999011 0.0434791   
     length 1.81771   
     axis 0 0 0   XYZ
    dof rx ry rz
    limits (-20.0 45.0)
           (-30.0 30.0)
           (-30.0 30.0)
  end
  begin
     id 15 
     name upperneck
     direction 0.00451595 0.964412 -0.264365   
     length 1.80434   
     axis 0 0 0   XYZ
    dof rx ry rz
    limits (-20.0 45.0)
           (-30.0 30.0)
           (-30.0 30.0)
  end
  begin
     id 16
     name head
     direction -0.00110849 0.995756 -0.0920241  
     length 1.84006  
     axis 0 0 0   XYZ
    dof rx ry rz
    limits (-20.0 45.0)
           (-30.0 30.0)
           (-30.0 30.0)
  end
  begin
     id 17 
     name lclavicle
     direction 0.921253 0.385213 0.0538957  
     length 3.67415  
     axis 0 0 0   XYZ
    dof ry rz
    limits (-20.0 10.0)
           (0.0 20.0)
  end
  begin
     id 18 
     name lhumerus
     direction 1 -4.48961e-011 6.73441e-028   
     length 4.32712   
     axis 180 -30 -90   XYZ
    dof rx ry rz
    limits (-60.0 90.0)
           (-90.0 90.0)
           (-90.0 90.0)
  end
  begin
     id 19
     name lradius
     direction 1 -4.48985e-011 -9.53507e-028   
     length 3.28587   
     axis 180 -30 -90   XYZ
    dof rx
    limits (-10.0 170.0)
  end
  begin
     id 20
     name lwrist
     direction 1 -4.48951e-011 -4.67472e-027   
     length 1.64293   
     axis 1.65735e-015 90 90   XYZ
    dof ry
    limits (-180.0 0.0)
 end
  begin
     id 21 
     name lhand
     direction 1 -4.48946e-011 -9.34945e-027   
     length 0.433158   
     axis 5.96574e-015 90 90   XYZ
    dof rx rz
    limits (-90.0 90.0)
           (-45.0 45.0)
  end
  begin
     id 22 
     name lfingers
     direction 1 -4.48882e-011 -1.86989e-026   
     length 0.349224   
     axis 1.19315e-014 90 90   XYZ
    dof rx
    limits (0.0 90.0)
  end
  begin
     id 23
     name lthumb
     direction 0.707107 -6.3493e-011 0.707107   
     length 0.501417   
     axis -90 45 2.85299e-015   XYZ
    dof rx rz
    limits (-45.0 45.0)
           (-45.0 45.0)
  end
  begin
     id 24 
     name rclavicle
     direction -0.884378 0.46502 -0.0403866   
     length 3.50218  
     axis 0 0 0   XYZ 
    dof ry rz
    limits (-10.0 20.0)
           (-20.0 0.0)
  end
  begin
     id 25 
     name rhumerus
     direction -1 -4.48964e-011 1.58188e-027  
     length 4.29104   
     axis 180 30 90   XYZ
    dof rx ry rz
    limits (-90.0 60.0)
           (-90.0 90.0)
           (-90.0 90.0)
  end
  begin
     id 26 
     name rradius
     direction -1 -4.48978e-011 -1.9722e-027   
     length 3.2272   
     axis 180 30 90   XYZ
    dof rx
    limits (-10.0 170.0)
  end
  begin
     id 27 
     name rwrist
     direction -1 -4.48969e-011 -4.67472e-027   
     length 1.6136   
     axis 1.65735e-015 -90 -90   XYZ
    dof ry
    limits (-180.0 0.0)
  end
  begin
     id 28
     name rhand
     direction -1 -4.48846e-011 -9.34945e-027   
     length 0.543623   
     axis 5.96574e-015 -90 -90   XYZ
    dof rx rz
    limits (-90.0 90.0)
           (-45.0 45.0)
  end
  begin
     id 29
     name rfingers
     direction -1 -4.49074e-011 -1.86989e-026   
     length 0.438283   
     axis 1.19315e-014 -90 -90   XYZ
    dof rx
    limits (0.0 90.0)
  end
  begin
     id 30
     name rthumb
     direction -0.707107 -6.34834e-011 0.707107   
     length 0.629289   
     axis -90 -45 -2.85299e-015   XYZ
    dof rx rz
    limits (-45.0 45.0)
           (-45.0 45.0)
  end
:hierarchy
  begin
    root lhipjoint rhipjoint lowerback
    lhipjoint lfemur
    lfemur ltibia
    ltibia lfoot
    lfoot ltoes
    rhipjoint rfemur
    rfemur rtibia
    rtibia rfoot
    rfoot rtoes
    lowerback upperback
    upperback thorax
    thorax lowerneck lclavicle rclavicle
    lowerneck upperneck
    upperneck head
    lclavicle lhumerus
    lhumerus lradius
    lradius lwrist
    lwrist lhand lthumb
    lhand lfingers
    rclavicle rhumerus
    rhumerus rradius
    rradius rwrist
    rwrist rhand rthumb
    rhand rfingers
  end

#!OML:ASF H:\GeneralSubjects\Female5\Project 1\Capture day 1\Session 1\Female5.ASF
:FULLY-SPECIFIED
:DEGREES
97
root 7.23513 15.7885 5.40238 199.199 -94.9348 -194.143
lowerback 5.91432 1.63388 1.35721
upperback -10.0395 2.4234 2.62317
thorax -14.4243 1.06535 1.73852
lowerneck -13.1873 -8.41723 -13.4477
upperneck 43.2651 -8.25458 -7.63602
head 19.2396 -7.34579 -3.29228
rclavicle -1.43125e-014 -1.11319e-014
rhumerus -31.3528 23.9597 -76.0281
rradius 96.359
rwrist -10.5403
rhand -20.6531 -32.5745
rfingers 7.12502
rthumb 5.7093 -62.4776
lclavicle -1.43125e-014 -1.11319e-014
lhumerus -52.8548 14.9495 70.9947
lradius 40.7062
lwrist -6.96338
lhand -26.4724 32.8115
lfingers 7.12502
lthumb 0.0895281 62.7913
rfemur 5.5873 8.55035 24.8164
rtibia 19.2908
rfoot -25.7056 -11.5002
rtoes -25.6485
lfemur -15.8216 -18.4208 -27.1604
ltibia 15.5778
lfoot -8.91258 9.49071
ltoes -65.6625
98
root 7.14687 15.8052 5.4793 197.833 -94.5525 -192.481
lowerback 5.50259 1.62393 0.992646
upperback -9.62712 2.34838 2.5318
thorax -13.6749 1.07192 1.85441
lowerneck -14.6516 -8.55711 -12.0692
upperneck 43.3667 -8.02848 -8.9869
head 19.4877 -7.19972 -4.22571
rclavicle 2.84262e-014 7.95139e-016
rhumerus -32.258 24.3983 -75.8053
rradius 95.9323
rwrist -9.99696
rhand -20.6759 -30.3328
rfingers 7.12502
rthumb 5.68731 -60.2365
lclavicle 2.84262e-014 7.95139e-016
lhumerus -51.4202 14.6666 71.2217
lradius 42.0328
lwrist -5.74807
lhand -26.8908 32.7889
lfingers 7.12502
lthumb -0.314662 62.7684
rfemur 5.21943 8.45432 24.1526
rtibia 19.8061
rfoot -24.8603 -11.4902
rtoes -26.3682
lfemur -15.5814 -18.3602 -27.7266
ltibia 15.4823
lfoot -9.26555 9.47791
ltoes -65.5841
99
root 7.06643 15.8176 5.54534 197.621 -94.2397 -191.995
lowerback 5.21078 1.42745 1.14076
upperback -9.57331 2.08821 2.56278
thorax -13.4134 0.934055 1.85386
lowerneck -14.7109 -8.3082 -12.0389
upperneck 43.0657 -7.4164 -9.47375
head 19.2933 -7.0252 -4.306
rclavicle -3.37934e-015 7.15625e-015
rhumerus -32.7285 25.3134 -75.689
rradius 94.2148
rwrist -9.5703
rhand -20.8855 -28.4956
rfingers 7.12502
rthumb 5.48492 -58.4047
lclavicle -3.37934e-015 7.15625e-015
lhumerus -51.1226 14.7418 71.1592
lradius 43.3387
lwrist -4.62259
lhand -26.8984 32.5491
lfingers 7.12502
lthumb -0.322001 62.5286
rfemur 4.97978 8.44881 23.7377
rtibia 20.1022
rfoot -24.1356 -11.6124
rtoes -27.0017
lfemur -15.4074 -18.108 -28.12
ltibia 15.3481
lfoot -9.26244 9.2357
ltoes -65.4012
100
root 6.99612 15.8278 5.60623 197.911 -94.0313 -192.038
lowerback 5.10412 0.927599 1.72515
upperback -9.86178 1.4862 2.86497
thorax -13.6676 0.595719 1.96969
lowerneck -13.9439 -7.6848 -13.4888
upperneck 43.029 -6.19477 -9.51311
head 19.2207 -6.83558 -3.82285
rclavicle 5.56597e-015 -4.85035e-014
rhumerus -32.8016 27.0807 -75.6495
rradius 91.647
rwrist -9.66698
rhand -21.1274 -27.4964
rfingers 7.12502
rthumb 5.25134 -57.4113
lclavicle 5.56597e-015 -4.85035e-014
lhumerus -51.9977 15.393 70.9115
lradius 44.5158
lwrist -3.62624
lhand -27.1788 33.6381
lfingers 7.12502
lthumb -0.592807 63.6171
rfemur 4.84898 8.51508 23.4856
rtibia 20.2532
rfoot -23.8099 -11.7785
rtoes -26.4769
lfemur -15.315 -17.8861 -28.4288
ltibia 15.2911
lfoot -9.286 8.97475
ltoes -65.1694
101
root 6.92897 15.8347 5.66599 196.904 -93.7386 -190.848
lowerback 5.03777 0.495188 1.22744
upperback -9.79824 0.882817 3.38
thorax -13.5582 0.391845 2.91808
lowerneck -14.2832 -7.28071 -13.6413
upperneck 42.8608 -5.10617 -10.4424
head 19.2152 -6.58374 -4.05292
rclavicle -4.96962e-015 -3.18055e-015
rhumerus -31.1062 28.3045 -74.8693
rradius 88.4067
rwrist -9.83343
rhand -21.9862 -27.8048
rfingers 7.12502
rthumb 4.42212 -57.7387
lclavicle -4.96962e-015 -3.18055e-015
lhumerus -51.9678 16.078 71.0656
lradius 45.226
lwrist -2.97967
lhand -27.5427 34.7626
lfingers 7.12502
lthumb -0.94426 64.7402
rfemur 4.87917 8.74553 23.1648
rtibia 20.2081
rfoot -23.8076 -12.0629
rtoes -26.303
lfemur -15.1809 -17.7303 -28.8574
ltibia 15.3173
lfoot -9.55468 8.86186
ltoes -64.9758
102
root 6.86315 15.8358 5.72402 197.02 -93.322 -190.853
lowerback 5.0295 0.109431 0.767938
upperback -9.6223 0.354991 3.93809
thorax -13.3366 0.220835 3.87611
lowerneck -14.8116 -6.91726 -13.5889
upperneck 42.5354 -4.0644 -11.4593
head 19.1642 -6.31748 -4.35871
rclavicle -3.77691e-015 1.27222e-014
rhumerus -28.6762 29.4524 -73.861
rradius 85.537
rwrist -9.6038
rhand -22.6901 -29.407
rfingers 7.12502
rthumb 3.74237 -59.3539
lclavicle -3.77691e-015 1.27222e-014
lhumerus -51.8431 16.7989 71.2596
lradius 45.7633
lwrist -2.7579
lhand -27.4112 34.4129
lfingers 7.12502
lthumb -0.817221 64.3911
rfemur 5.08581 9.0549 22.9252
rtibia 19.946
rfoot -23.8455 -12.3057
rtoes -26.5273
lfemur -14.989 -17.3564 -29.2298
ltibia 15.3597
lfoot -9.70414 8.87152
ltoes -65.232
103
root 6.80453 15.8338 5.78156 198.568 -92.8895 -192.216
lowerback 4.9492 -0.0222382 1.07659
upperback -9.68306 0.213562 4.07924
thorax -13.3496 0.126488 3.88401
lowerneck -14.777 -6.57129 -13.7277
upperneck 42.328 -3.26754 -12.1225
head 19.06 -6.13436 -4.48677
rclavicle 4.17448e-015 1.59028e-015
rhumerus -27.3945 29.7335 -73.4167
rradius 84.195
rwrist -9.39281
rhand -23.1161 -30.7492
rfingers 7.12502
rthumb 3.33102 -60.703
lclavicle 4.17448e-015 1.59028e-015
lhumerus -51.7225 16.4495 71.4729
lradius 45.9998
lwrist -2.88897
lhand -27.2221 33.1859
lfingers 7.12502
lthumb -0.634562 63.1647
rfemur 5.2225 9.26906 22.7072
rtibia 19.6028
rfoot -23.7504 -12.5288
rtoes -26.8938
lfemur -14.9845 -16.8802 -29.4986
ltibia 15.5227
lfoot -9.94977 8.68675
ltoes -65.26
104
root 6.75696 15.8303 5.83583 198.507 -92.3517 -191.924
lowerback 4.97298 -0.0758557 1.07517
upperback -9.59744 0.156461 4.2705
thorax -13.2635 0.109496 4.10339
lowerneck -14.8878 -6.34745 -13.6129
upperneck 41.8383 -2.70821 -12.7377
head 18.8009 -5.96371 -4.63531
rclavicle -1.03368e-014 2.22639e-014
rhumerus -26.0918 29.7552 -72.8255
rradius 84.5402
rwrist -9.72334
rhand -23.1751 -31.3151
rfingers 7.12502
rthumb 3.274 -61.2697
lclavicle -1.03368e-014 2.22639e-014
lhumerus -51.0121 16.16 71.9675
lradius 45.8726
lwrist -3.51586
lhand -27.1794 32.6946
lfingers 7.12502
lthumb -0.59339 62.6735
rfemur 5.20732 9.67475 22.403
rtibia 19.3915
rfoot -23.7232 -13.1613
rtoes -28.2519
lfemur -15.1566 -16.2554 -29.8431
ltibia 15.8299
lfoot -10.2219 8.393
ltoes -65.2117
105
root 6.71683 15.8239 5.88464 197.185 -91.6688 -190.404
lowerback 5.15461 0.0756155 1.33254
upperback -9.47832 0.390336 4.14053
thorax -13.2464 0.189079 3.77354
lowerneck -15.1163 -6.2724 -13.4296
upperneck 41.4821 -2.4268 -13.1575
head 18.648 -5.85998 -4.77636
rclavicle 1.39149e-015 1.59028e-015
rhumerus -25.5928 29.1054 -72.6859
rradius 86.5254
rwrist -9.85186
rhand -22.4891 -31.7481
rfingers 7.12502
rthumb 3.93643 -61.6915
lclavicle 1.39149e-015 1.59028e-015
lhumerus -50.0172 15.3044 72.3407
lradius 45.6752
lwrist -4.56454
lhand -26.7837 32.3433
lfingers 7.12502
lthumb -0.211158 62.323
rfemur 5.21189 10.4829 22.1657
rtibia 19.1956
rfoot -23.917 -14.281
rtoes -30.641
lfemur -15.3391 -15.5479 -30.1949
ltibia 16.1554
lfoot -10.4906 8.13341
ltoes -65.1287
106
root 6.68317 15.8185 5.92919 191.049 -91.0138 -184.021
lowerback 5.41052 0.223355 1.45804
upperback -9.41498 0.611279 4.05493
thorax -13.3416 0.279196 3.57325
lowerneck -15.5487 -6.16294 -13.2526
upperneck 41.4939 -2.14362 -13.3116
head 18.7755 -5.74428 -4.8598
rclavicle -4.37326e-015 3.18055e-015
rhumerus -25.7416 28.8159 -72.6734
rradius 89.7829
rwrist -9.63393
rhand -21.741 -32.2682
rfingers 7.12502
rthumb 4.65889 -62.197
lclavicle -4.37326e-015 3.18055e-015
lhumerus -49.3686 14.4602 72.6775
lradius 45.8321
lwrist -5.65951
lhand -26.2274 31.709
lfingers 7.12502
lthumb 0.326147 61.6885
rfemur 5.18811 11.3519 21.8888
rtibia 18.9292
rfoot -24.1594 -15.1195
rtoes -32.0937
lfemur -15.5857 -15.0206 -30.5409
ltibia 16.475
lfoot -10.7619 7.97131
ltoes -65.0887
107
root 6.65594 15.8129 5.96875 171.725 -90.5403 -164.343
lowerback 5.8061 0.368709 1.50017
upperback -9.43364 0.831515 4.03291
thorax -13.6247 0.381736 3.49556
lowerneck -15.7617 -5.94468 -13.2249
upperneck 40.8357 -1.66624 -13.483
head 18.4559 -5.52679 -4.76545
rclavicle 1.19271e-015 9.54166e-015
rhumerus -26.3487 28.822 -72.6042
rradius 93.6784
rwrist -9.09598
rhand -21.2666 -32.8714
rfingers 7.12502
rthumb 5.11691 -62.7897
lclavicle 1.19271e-015 9.54166e-015
lhumerus -48.9903 13.5335 73.1595
lradius 46.3297
lwrist -6.48748
lhand -25.7288 31.5588
lfingers 7.12502
lthumb 0.807715 61.537
rfemur 4.95441 12.0411 21.5613
rtibia 18.7897
rfoot -24.4098 -15.3256
rtoes -31.7981
lfemur -16.0262 -14.4703 -30.8298
ltibia 16.8116
lfoot -10.81 7.70658
ltoes -65.096
108
root 6.63486 15.8108 6.00762 110.054 -90.2971 -102.218
lowerback 6.44694 0.500759 1.4524
upperback -9.64919 1.04636 4.17091
thorax -14.3096 0.50108 3.66005
lowerneck -16.3253 -5.66327 -13.0134
upperneck 40.928 -1.00531 -13.9091
head 18.6958 -5.31411 -4.94358
rclavicle -2.5842e-015 1.11319e-014
rhumerus -27.5393 29.2379 -72.5779
rradius 97.5029
rwrist -8.22029
rhand -20.8349 -33.6245
rfingers 7.12502
rthumb 5.53375 -63.5322
lclavicle -2.5842e-015 1.11319e-014
lhumerus -49.1737 13.113 73.5059
lradius 46.986
lwrist -7.2709
lhand -25.3729 31.3724
lfingers 7.12502
lthumb 1.15144 61.349
rfemur 4.50871 12.6568 21.2494
rtibia 18.7624
rfoot -24.6939 -15.3015
rtoes -31.1082
lfemur -16.6082 -13.7898 -31.0292
ltibia 17.0597
lfoot -10.6945 7.36162
ltoes -65.1145
109
root 6.61925 15.8166 6.04563 65.3562 -90.5559 -56.9765
lowerback 6.45113 0.593034 1.85867
upperback -9.61175 1.20763 3.98627
thorax -14.2592 0.521127 3.19211
lowerneck -16.6449 -5.43334 -12.7224
upperneck 40.5163 -0.602183 -14.0238
head 18.5379 -5.09155 -4.91997
rclavicle -1.17283e-014 2.38542e-014
rhumerus -28.5035 29.1584 -72.9397
rradius 100.703
rwrist -7.97538
rhand -21.0964 -33.7128
rfingers 7.12502
rthumb 5.28128 -63.627
lclavicle -1.17283e-014 2.38542e-014
lhumerus -48.8273 12.7378 73.4983
lradius 47.6305
lwrist -7.71026
lhand -25.638 31.2153
lfingers 7.12502
lthumb 0.895397 61.1932
rfemur 3.98969 13.1349 20.848
rtibia 18.6719
rfoot -25.0426 -15.3387
rtoes -30.6296
lfemur -17.2489 -13.332 -31.2683
ltibia 17.2498
lfoot -10.694 7.0895
ltoes -65.1739
110
root 6.60438 15.8249 6.08094 56.8241 -90.6977 -47.795
lowerback 6.67372 0.616562 2.20559
upperback -9.78417 1.29119 3.94888
thorax -14.605 0.518225 2.9504
lowerneck -17.0543 -5.19076 -12.405
upperneck 40.2961 -0.155284 -14.2054
head 18.5281 -4.87816 -4.96551
rclavicle 7.55382e-015 -2.70347e-014
rhumerus -29.6376 29.0574 -73.226
rradius 103.303
rwrist -9.18536
rhand -21.394 -32.4196
rfingers 7.12502
rthumb 4.99394 -62.3408
lclavicle 7.55382e-015 -2.70347e-014
lhumerus -48.9838 12.3939 73.5283
lradius 48.385
lwrist -7.53159
lhand -26.2494 31.5332
lfingers 7.12502
lthumb 0.304821 61.5128
rfemur 3.38472 13.3036 20.5332
rtibia 18.5511
rfoot -25.252 -15.5976
rtoes -31.0685
lfemur -18.0163 -13.0269 -31.3367
ltibia 17.4387
lfoot -10.6024 6.74842
ltoes -65.1592
111
root 6.59074 15.8335 6.1165 52.6896 -90.6543 -42.9535
lowerback 7.00787 0.616162 2.63103
upperback -10.105 1.36751 3.98443
thorax -15.2082 0.503146 2.75678
lowerneck -17.4559 -4.94249 -12.0983
upperneck 40.2787 0.306953 -14.4217
head 18.6463 -4.68528 -5.05823
rclavicle -6.36111e-015 1.11319e-014
rhumerus -30.6738 28.7101 -73.278
rradius 105.129
rwrist -10.7367
rhand -20.6529 -30.8631
rfingers 7.12502
rthumb 5.70945 -60.7662
lclavicle -6.36111e-015 1.11319e-014
lhumerus -49.4803 12.0388 73.5214
lradius 49.0188
lwrist -6.88829
lhand -26.9123 31.6692
lfingers 7.12502
lthumb -0.335416 61.6487
rfemur 2.73174 13.2787 20.3386
rtibia 18.3894
rfoot -25.338 -16.0358
rtoes -32.1306
lfemur -18.9076 -12.7955 -31.2363
ltibia 17.6555
lfoot -10.3774 6.34732
ltoes -65.0439
